<svg xmlns="http://www.w3.org/2000/svg" xmlns:xlink="http://www.w3.org/1999/xlink" version="1.1" class="marks" width="675" height="395" viewBox="0 0 675 395"><rect width="675" height="395" fill="white"/><g fill="none" stroke-miterlimit="10" transform="translate(70,39)"><g class="mark-group role-frame root" role="graphics-object" aria-roledescription="group mark container"><g transform="translate(0,0)"><path class="background" aria-hidden="true" d="M0.5,0.5h600v300h-600Z" stroke="#ddd"/><g><g class="mark-group role-axis" aria-hidden="true"><g transform="translate(0.5,0.5)"><path class="background" aria-hidden="true" d="M0,0h0v0h0Z" pointer-events="none"/><g><g class="mark-rule role-axis-grid" pointer-events="none"><line transform="translate(0,300)" x2="600" y2="0" stroke="#ddd" stroke-width="1" opacity="1"/><line transform="translate(0,257)" x2="600" y2="0" stroke="#ddd" stroke-width="1" opacity="1"/><line transform="translate(0,214)" x2="600" y2="0" stroke="#ddd" stroke-width="1" opacity="1"/><line transform="translate(0,171)" x2="600" y2="0" stroke="#ddd" stroke-width="1" opacity="1"/><line transform="translate(0,129)" x2="600" y2="0" stroke="#ddd" stroke-width="1" opacity="1"/><line transform="translate(0,86)" x2="600" y2="0" stroke="#ddd" stroke-width="1" opacity="1"/><line transform="translate(0,43)" x2="600" y2="0" stroke="#ddd" stroke-width="1" opacity="1"/><line transform="translate(0,0)" x2="600" y2="0" stroke="#ddd" stroke-width="1" opacity="1"/></g></g><path class="foreground" aria-hidden="true" d="" pointer-events="none" display="none"/></g></g><g class="mark-group role-axis" role="graphics-symbol" aria-roledescription="axis" aria-label="X-axis for a discrete scale with 31 values: November 21, 2017 10:00, November 21, 2017 10:00, November 21, 2017 10:00, November 21, 2017 11:00, November 21, 2017 11:00, ending with November 21, 2017 15:00"><g transform="translate(0.5,0.5)"><path class="background" aria-hidden="true" d="M0,0h0v0h0Z" pointer-events="none"/><g><g class="mark-rule role-axis-tick" pointer-events="none"><line transform="translate(9,0)" x2="0" y2="-5" stroke="#888" stroke-width="1" opacity="1"/><line transform="translate(29,0)" x2="0" y2="-5" stroke="#888" stroke-width="1" opacity="1"/><line transform="translate(48,0)" x2="0" y2="-5" stroke="#888" stroke-width="1" opacity="1"/><line transform="translate(67,0)" x2="0" y2="-5" stroke="#888" stroke-width="1" opacity="1"/><line transform="translate(87,0)" x2="0" y2="-5" stroke="#888" stroke-width="1" opacity="1"/><line transform="translate(106,0)" x2="0" y2="-5" stroke="#888" stroke-width="1" opacity="1"/><line transform="translate(125,0)" x2="0" y2="-5" stroke="#888" stroke-width="1" opacity="1"/><line transform="translate(145,0)" x2="0" y2="-5" stroke="#888" stroke-width="1" opacity="1"/><line transform="translate(164,0)" x2="0" y2="-5" stroke="#888" stroke-width="1" opacity="1"/><line transform="translate(183,0)" x2="0" y2="-5" stroke="#888" stroke-width="1" opacity="1"/><line transform="translate(203,0)" x2="0" y2="-5" stroke="#888" stroke-width="1" opacity="1"/><line transform="translate(222,0)" x2="0" y2="-5" stroke="#888" stroke-width="1" opacity="1"/><line transform="translate(241,0)" x2="0" y2="-5" stroke="#888" stroke-width="1" opacity="1"/><line transform="translate(261,0)" x2="0" y2="-5" stroke="#888" stroke-width="1" opacity="1"/><line transform="translate(280,0)" x2="0" y2="-5" stroke="#888" stroke-width="1" opacity="1"/><line transform="translate(300,0)" x2="0" y2="-5" stroke="#888" stroke-width="1" opacity="1"/><line transform="translate(319,0)" x2="0" y2="-5" stroke="#888" stroke-width="1" opacity="1"/><line transform="translate(338,0)" x2="0" y2="-5" stroke="#888" stroke-width="1" opacity="1"/><line transform="translate(358,0)" x2="0" y2="-5" stroke="#888" stroke-width="1" opacity="1"/><line transform="translate(377,0)" x2="0" y2="-5" stroke="#888" stroke-width="1" opacity="1"/><line transform="translate(396,0)" x2="0" y2="-5" stroke="#888" stroke-width="1" opacity="1"/><line transform="translate(416,0)" x2="0" y2="-5" stroke="#888" stroke-width="1" opacity="1"/><line transform="translate(435,0)" x2="0" y2="-5" stroke="#888" stroke-width="1" opacity="1"/><line transform="translate(454,0)" x2="0" y2="-5" stroke="#888" stroke-width="1" opacity="1"/><line transform="translate(474,0)" x2="0" y2="-5" stroke="#888" stroke-width="1" opacity="1"/><line transform="translate(493,0)" x2="0" y2="-5" stroke="#888" stroke-width="1" opacity="1"/><line transform="translate(512,0)" x2="0" y2="-5" stroke="#888" stroke-width="1" opacity="1"/><line transform="translate(532,0)" x2="0" y2="-5" stroke="#888" stroke-width="1" opacity="1"/><line transform="translate(551,0)" x2="0" y2="-5" stroke="#888" stroke-width="1" opacity="1"/><line transform="translate(570,0)" x2="0" y2="-5" stroke="#888" stroke-width="1" opacity="1"/><line transform="translate(590,0)" x2="0" y2="-5" stroke="#888" stroke-width="1" opacity="1"/></g><g class="mark-rule role-axis-domain" pointer-events="none"><line transform="translate(0,0)" x2="600" y2="0" stroke="#888" stroke-width="1" opacity="1"/></g></g><path class="foreground" aria-hidden="true" d="" pointer-events="none" display="none"/></g></g><g class="mark-group role-axis" role="graphics-symbol" aria-roledescription="axis" aria-label="X-axis for a discrete scale with 31 values: Tuesday, 21 November 2017, 10:30:00 AM, Tuesday, 21 November 2017, 10:40:00 AM, Tuesday, 21 November 2017, 10:50:00 AM, Tuesday, 21 November 2017, 11:00:00 AM, Tuesday, 21 November 2017, 11:10:00 AM, ending with Tuesday, 21 November 2017, 3:30:00 PM"><g transform="translate(0.5,0.5)"><path class="background" aria-hidden="true" d="M0,0h0v0h0Z" pointer-events="none"/><g><g class="mark-rule role-axis-tick" pointer-events="none"><line transform="translate(9,0)" x2="0" y2="-5" stroke="#888" stroke-width="1" opacity="1"/><line transform="translate(29,0)" x2="0" y2="-5" stroke="#888" stroke-width="1" opacity="1"/><line transform="translate(48,0)" x2="0" y2="-5" stroke="#888" stroke-width="1" opacity="1"/><line transform="translate(67,0)" x2="0" y2="-5" stroke="#888" stroke-width="1" opacity="1"/><line transform="translate(87,0)" x2="0" y2="-5" stroke="#888" stroke-width="1" opacity="1"/><line transform="translate(106,0)" x2="0" y2="-5" stroke="#888" stroke-width="1" opacity="1"/><line transform="translate(125,0)" x2="0" y2="-5" stroke="#888" stroke-width="1" opacity="1"/><line transform="translate(145,0)" x2="0" y2="-5" stroke="#888" stroke-width="1" opacity="1"/><line transform="translate(164,0)" x2="0" y2="-5" stroke="#888" stroke-width="1" opacity="1"/><line transform="translate(183,0)" x2="0" y2="-5" stroke="#888" stroke-width="1" opacity="1"/><line transform="translate(203,0)" x2="0" y2="-5" stroke="#888" stroke-width="1" opacity="1"/><line transform="translate(222,0)" x2="0" y2="-5" stroke="#888" stroke-width="1" opacity="1"/><line transform="translate(241,0)" x2="0" y2="-5" stroke="#888" stroke-width="1" opacity="1"/><line transform="translate(261,0)" x2="0" y2="-5" stroke="#888" stroke-width="1" opacity="1"/><line transform="translate(280,0)" x2="0" y2="-5" stroke="#888" stroke-width="1" opacity="1"/><line transform="translate(300,0)" x2="0" y2="-5" stroke="#888" stroke-width="1" opacity="1"/><line transform="translate(319,0)" x2="0" y2="-5" stroke="#888" stroke-width="1" opacity="1"/><line transform="translate(338,0)" x2="0" y2="-5" stroke="#888" stroke-width="1" opacity="1"/><line transform="translate(358,0)" x2="0" y2="-5" stroke="#888" stroke-width="1" opacity="1"/><line transform="translate(377,0)" x2="0" y2="-5" stroke="#888" stroke-width="1" opacity="1"/><line transform="translate(396,0)" x2="0" y2="-5" stroke="#888" stroke-width="1" opacity="1"/><line transform="translate(416,0)" x2="0" y2="-5" stroke="#888" stroke-width="1" opacity="1"/><line transform="translate(435,0)" x2="0" y2="-5" stroke="#888" stroke-width="1" opacity="1"/><line transform="translate(454,0)" x2="0" y2="-5" stroke="#888" stroke-width="1" opacity="1"/><line transform="translate(474,0)" x2="0" y2="-5" stroke="#888" stroke-width="1" opacity="1"/><line transform="translate(493,0)" x2="0" y2="-5" stroke="#888" stroke-width="1" opacity="1"/><line transform="translate(512,0)" x2="0" y2="-5" stroke="#888" stroke-width="1" opacity="1"/><line transform="translate(532,0)" x2="0" y2="-5" stroke="#888" stroke-width="1" opacity="1"/><line transform="translate(551,0)" x2="0" y2="-5" stroke="#888" stroke-width="1" opacity="1"/><line transform="translate(570,0)" x2="0" y2="-5" stroke="#888" stroke-width="1" opacity="1"/><line transform="translate(590,0)" x2="0" y2="-5" stroke="#888" stroke-width="1" opacity="1"/></g><g class="mark-rule role-axis-domain" pointer-events="none"><line transform="translate(0,0)" x2="600" y2="0" stroke="#888" stroke-width="1" opacity="1"/></g></g><path class="foreground" aria-hidden="true" d="" pointer-events="none" display="none"/></g></g><g class="mark-group role-axis" role="graphics-symbol" aria-roledescription="axis" aria-label="X-axis for a discrete scale with 31 values: Tuesday, 21 November 2017, 10:30:00 AM, Tuesday, 21 November 2017, 10:40:00 AM, Tuesday, 21 November 2017, 10:50:00 AM, Tuesday, 21 November 2017, 11:00:00 AM, Tuesday, 21 November 2017, 11:10:00 AM, ending with Tuesday, 21 November 2017, 3:30:00 PM"><g transform="translate(0.5,0.5)"><path class="background" aria-hidden="true" d="M0,0h0v0h0Z" pointer-events="none"/><g><g class="mark-rule role-axis-tick" pointer-events="none"><line transform="translate(9,0)" x2="0" y2="-5" stroke="#888" stroke-width="1" opacity="1"/><line transform="translate(29,0)" x2="0" y2="-5" stroke="#888" stroke-width="1" opacity="1"/><line transform="translate(48,0)" x2="0" y2="-5" stroke="#888" stroke-width="1" opacity="1"/><line transform="translate(67,0)" x2="0" y2="-5" stroke="#888" stroke-width="1" opacity="1"/><line transform="translate(87,0)" x2="0" y2="-5" stroke="#888" stroke-width="1" opacity="1"/><line transform="translate(106,0)" x2="0" y2="-5" stroke="#888" stroke-width="1" opacity="1"/><line transform="translate(125,0)" x2="0" y2="-5" stroke="#888" stroke-width="1" opacity="1"/><line transform="translate(145,0)" x2="0" y2="-5" stroke="#888" stroke-width="1" opacity="1"/><line transform="translate(164,0)" x2="0" y2="-5" stroke="#888" stroke-width="1" opacity="1"/><line transform="translate(183,0)" x2="0" y2="-5" stroke="#888" stroke-width="1" opacity="1"/><line transform="translate(203,0)" x2="0" y2="-5" stroke="#888" stroke-width="1" opacity="1"/><line transform="translate(222,0)" x2="0" y2="-5" stroke="#888" stroke-width="1" opacity="1"/><line transform="translate(241,0)" x2="0" y2="-5" stroke="#888" stroke-width="1" opacity="1"/><line transform="translate(261,0)" x2="0" y2="-5" stroke="#888" stroke-width="1" opacity="1"/><line transform="translate(280,0)" x2="0" y2="-5" stroke="#888" stroke-width="1" opacity="1"/><line transform="translate(300,0)" x2="0" y2="-5" stroke="#888" stroke-width="1" opacity="1"/><line transform="translate(319,0)" x2="0" y2="-5" stroke="#888" stroke-width="1" opacity="1"/><line transform="translate(338,0)" x2="0" y2="-5" stroke="#888" stroke-width="1" opacity="1"/><line transform="translate(358,0)" x2="0" y2="-5" stroke="#888" stroke-width="1" opacity="1"/><line transform="translate(377,0)" x2="0" y2="-5" stroke="#888" stroke-width="1" opacity="1"/><line transform="translate(396,0)" x2="0" y2="-5" stroke="#888" stroke-width="1" opacity="1"/><line transform="translate(416,0)" x2="0" y2="-5" stroke="#888" stroke-width="1" opacity="1"/><line transform="translate(435,0)" x2="0" y2="-5" stroke="#888" stroke-width="1" opacity="1"/><line transform="translate(454,0)" x2="0" y2="-5" stroke="#888" stroke-width="1" opacity="1"/><line transform="translate(474,0)" x2="0" y2="-5" stroke="#888" stroke-width="1" opacity="1"/><line transform="translate(493,0)" x2="0" y2="-5" stroke="#888" stroke-width="1" opacity="1"/><line transform="translate(512,0)" x2="0" y2="-5" stroke="#888" stroke-width="1" opacity="1"/><line transform="translate(532,0)" x2="0" y2="-5" stroke="#888" stroke-width="1" opacity="1"/><line transform="translate(551,0)" x2="0" y2="-5" stroke="#888" stroke-width="1" opacity="1"/><line transform="translate(570,0)" x2="0" y2="-5" stroke="#888" stroke-width="1" opacity="1"/><line transform="translate(590,0)" x2="0" y2="-5" stroke="#888" stroke-width="1" opacity="1"/></g><g class="mark-rule role-axis-domain" pointer-events="none"><line transform="translate(0,0)" x2="600" y2="0" stroke="#888" stroke-width="1" opacity="1"/></g></g><path class="foreground" aria-hidden="true" d="" pointer-events="none" display="none"/></g></g><g class="mark-group role-axis" role="graphics-symbol" aria-roledescription="axis" aria-label="X-axis for a discrete scale with 31 values: Tuesday, 21 November 2017, 10:30:00 AM, Tuesday, 21 November 2017, 10:40:00 AM, Tuesday, 21 November 2017, 10:50:00 AM, Tuesday, 21 November 2017, 11:00:00 AM, Tuesday, 21 November 2017, 11:10:00 AM, ending with Tuesday, 21 November 2017, 3:30:00 PM"><g transform="translate(0.5,0.5)"><path class="background" aria-hidden="true" d="M0,0h0v0h0Z" pointer-events="none"/><g><g class="mark-rule role-axis-tick" pointer-events="none"><line transform="translate(9,0)" x2="0" y2="-5" stroke="#888" stroke-width="1" opacity="1"/><line transform="translate(29,0)" x2="0" y2="-5" stroke="#888" stroke-width="1" opacity="1"/><line transform="translate(48,0)" x2="0" y2="-5" stroke="#888" stroke-width="1" opacity="1"/><line transform="translate(67,0)" x2="0" y2="-5" stroke="#888" stroke-width="1" opacity="1"/><line transform="translate(87,0)" x2="0" y2="-5" stroke="#888" stroke-width="1" opacity="1"/><line transform="translate(106,0)" x2="0" y2="-5" stroke="#888" stroke-width="1" opacity="1"/><line transform="translate(125,0)" x2="0" y2="-5" stroke="#888" stroke-width="1" opacity="1"/><line transform="translate(145,0)" x2="0" y2="-5" stroke="#888" stroke-width="1" opacity="1"/><line transform="translate(164,0)" x2="0" y2="-5" stroke="#888" stroke-width="1" opacity="1"/><line transform="translate(183,0)" x2="0" y2="-5" stroke="#888" stroke-width="1" opacity="1"/><line transform="translate(203,0)" x2="0" y2="-5" stroke="#888" stroke-width="1" opacity="1"/><line transform="translate(222,0)" x2="0" y2="-5" stroke="#888" stroke-width="1" opacity="1"/><line transform="translate(241,0)" x2="0" y2="-5" stroke="#888" stroke-width="1" opacity="1"/><line transform="translate(261,0)" x2="0" y2="-5" stroke="#888" stroke-width="1" opacity="1"/><line transform="translate(280,0)" x2="0" y2="-5" stroke="#888" stroke-width="1" opacity="1"/><line transform="translate(300,0)" x2="0" y2="-5" stroke="#888" stroke-width="1" opacity="1"/><line transform="translate(319,0)" x2="0" y2="-5" stroke="#888" stroke-width="1" opacity="1"/><line transform="translate(338,0)" x2="0" y2="-5" stroke="#888" stroke-width="1" opacity="1"/><line transform="translate(358,0)" x2="0" y2="-5" stroke="#888" stroke-width="1" opacity="1"/><line transform="translate(377,0)" x2="0" y2="-5" stroke="#888" stroke-width="1" opacity="1"/><line transform="translate(396,0)" x2="0" y2="-5" stroke="#888" stroke-width="1" opacity="1"/><line transform="translate(416,0)" x2="0" y2="-5" stroke="#888" stroke-width="1" opacity="1"/><line transform="translate(435,0)" x2="0" y2="-5" stroke="#888" stroke-width="1" opacity="1"/><line transform="translate(454,0)" x2="0" y2="-5" stroke="#888" stroke-width="1" opacity="1"/><line transform="translate(474,0)" x2="0" y2="-5" stroke="#888" stroke-width="1" opacity="1"/><line transform="translate(493,0)" x2="0" y2="-5" stroke="#888" stroke-width="1" opacity="1"/><line transform="translate(512,0)" x2="0" y2="-5" stroke="#888" stroke-width="1" opacity="1"/><line transform="translate(532,0)" x2="0" y2="-5" stroke="#888" stroke-width="1" opacity="1"/><line transform="translate(551,0)" x2="0" y2="-5" stroke="#888" stroke-width="1" opacity="1"/><line transform="translate(570,0)" x2="0" y2="-5" stroke="#888" stroke-width="1" opacity="1"/><line transform="translate(590,0)" x2="0" y2="-5" stroke="#888" stroke-width="1" opacity="1"/></g><g class="mark-rule role-axis-domain" pointer-events="none"><line transform="translate(0,0)" x2="600" y2="0" stroke="#888" stroke-width="1" opacity="1"/></g></g><path class="foreground" aria-hidden="true" d="" pointer-events="none" display="none"/></g></g><g class="mark-group role-axis" role="graphics-symbol" aria-roledescription="axis" aria-label="Y-axis titled 'NO2 level (µg/m3)' for a linear scale with values from 40 to 180"><g transform="translate(0.5,0.5)"><path class="background" aria-hidden="true" d="M0,0h0v0h0Z" pointer-events="none"/><g><g class="mark-rule role-axis-tick" pointer-events="none"><line transform="translate(0,300)" x2="-5" y2="0" stroke="#888" stroke-width="1" opacity="1"/><line transform="translate(0,257)" x2="-5" y2="0" stroke="#888" stroke-width="1" opacity="1"/><line transform="translate(0,214)" x2="-5" y2="0" stroke="#888" stroke-width="1" opacity="1"/><line transform="translate(0,171)" x2="-5" y2="0" stroke="#888" stroke-width="1" opacity="1"/><line transform="translate(0,129)" x2="-5" y2="0" stroke="#888" stroke-width="1" opacity="1"/><line transform="translate(0,86)" x2="-5" y2="0" stroke="#888" stroke-width="1" opacity="1"/><line transform="translate(0,43)" x2="-5" y2="0" stroke="#888" stroke-width="1" opacity="1"/><line transform="translate(0,0)" x2="-5" y2="0" stroke="#888" stroke-width="1" opacity="1"/></g><g class="mark-text role-axis-label" pointer-events="none"><text text-anchor="end" transform="translate(-7,306)" font-family="sans-serif" font-size="20px" fill="#000" opacity="1">40</text><text text-anchor="end" transform="translate(-7,263.14285714285717)" font-family="sans-serif" font-size="20px" fill="#000" opacity="1">60</text><text text-anchor="end" transform="translate(-7,220.28571428571428)" font-family="sans-serif" font-size="20px" fill="#000" opacity="1">80</text><text text-anchor="end" transform="translate(-7,177.42857142857142)" font-family="sans-serif" font-size="20px" fill="#000" opacity="1">100</text><text text-anchor="end" transform="translate(-7,134.57142857142858)" font-family="sans-serif" font-size="20px" fill="#000" opacity="1">120</text><text text-anchor="end" transform="translate(-7,91.71428571428571)" font-family="sans-serif" font-size="20px" fill="#000" opacity="1">140</text><text text-anchor="end" transform="translate(-7,48.85714285714287)" font-family="sans-serif" font-size="20px" fill="#000" opacity="1">160</text><text text-anchor="end" transform="translate(-7,6)" font-family="sans-serif" font-size="20px" fill="#000" opacity="1">180</text></g><g class="mark-rule role-axis-domain" pointer-events="none"><line transform="translate(0,300)" x2="0" y2="-300" stroke="#888" stroke-width="1" opacity="1"/></g><g class="mark-text role-axis-title" pointer-events="none"><text text-anchor="middle" transform="translate(-44.369140625,150) rotate(-90) translate(0,-4)" font-family="sans-serif" font-size="20px" font-weight="bold" fill="#000" opacity="1">NO2 level (µg/m3)</text></g></g><path class="foreground" aria-hidden="true" d="" pointer-events="none" display="none"/></g></g><g class="mark-rule role-mark layer_0_marks" role="graphics-object" aria-roledescription="rule mark container"><line aria-label="99: 115.032534335; hour (year-month-date-hours): Nov 21, 2017 11:00; NO2 level (µg/m3): 61.1489931976" role="graphics-symbol" aria-roledescription="rule mark" transform="translate(67.74193548387096,254.6807288622737)" x2="0" y2="-115.46473100852583" stroke="black"/><line aria-label="99: 118.200508903; hour (year-month-date-hours): Nov 21, 2017 12:00; NO2 level (µg/m3): 58.7364625288" role="graphics-symbol" aria-roledescription="rule mark" transform="translate(183.8709677419355,259.8504374383427)" x2="0" y2="-127.42295651725198" stroke="black"/><line aria-label="99: 133.701542591; hour (year-month-date-hours): Nov 21, 2017 13:00; NO2 level (µg/m3): 63.2108497834" role="graphics-symbol" aria-roledescription="rule mark" transform="translate(300,250.26246474975022)" x2="0" y2="-151.05148458795412" stroke="black"/><line aria-label="99: 175.525426753; hour (year-month-date-hours): Nov 21, 2017 14:00; NO2 level (µg/m3): 49.9510664838" role="graphics-symbol" aria-roledescription="rule mark" transform="translate(416.1290322580645,278.6762861061444)" x2="0" y2="-269.08791486174783" stroke="black"/><line aria-label="99: 158.699971777; hour (year-month-date-hours): Nov 21, 2017 15:00; NO2 level (µg/m3): 65.8925370948" role="graphics-symbol" aria-roledescription="rule mark" transform="translate(532.258064516129,244.5159919398023)" x2="0" y2="-198.87307431950197" stroke="black"/></g><g class="mark-rect role-mark layer_1_marks" role="graphics-object" aria-roledescription="rect mark container"><path aria-label="10: 70.5025962252; 90: 99.8537531193; hoursbl: Nov 21, 2017; hoursbh: Nov 21, 2017" role="graphics-symbol" aria-roledescription="rect mark" d="M48.38709677419355,171.74195760146094h38.70967741935483v62.89533620178557h-38.70967741935483Z" fill="#4c78a8"/><path aria-label="10: 68.7614227859; 90: 101.070979191; hoursbl: Nov 21, 2017; hoursbh: Nov 21, 2017" role="graphics-symbol" aria-roledescription="rect mark" d="M164.51612903225808,169.13361601906468h38.70967741935485v69.23476372537732h-38.70967741935485Z" fill="#4c78a8"/><path aria-label="10: 74.8338094619; 90: 113.055993999; hoursbl: Nov 21, 2017; hoursbh: Nov 21, 2017" role="graphics-symbol" aria-roledescription="rect mark" d="M280.6451612903226,143.45144143049023h38.70967741935482v81.90468115107058h-38.70967741935482Z" fill="#4c78a8"/><path aria-label="10: 66.3498240794; 90: 132.543908652; hoursbl: Nov 21, 2017; hoursbh: Nov 21, 2017" role="graphics-symbol" aria-roledescription="rect mark" d="M396.77419354838713,101.6916243182021h38.70967741935482v141.84446694024018h-38.70967741935482Z" fill="#4c78a8"/><path aria-label="10: 80.3287193713; 90: 130.352569778; hoursbl: Nov 21, 2017; hoursbh: Nov 21, 2017" role="graphics-symbol" aria-roledescription="rect mark" d="M512.9032258064516,106.387350476631h38.709677419354875v107.19396515632077h-38.709677419354875Z" fill="#4c78a8"/></g><g class="mark-rect role-mark layer_2_marks" role="graphics-object" aria-roledescription="rect mark container"><path aria-label="25: 76.5710413626; 75: 91.9638826604; hourbbl: Nov 21, 2017; hourbbh: Nov 21, 2017" role="graphics-symbol" aria-roledescription="rect mark" d="M29.032258064516128,188.64882287058356h77.41935483870968v32.98465992374369h-77.41935483870968Z" fill="#4c78a8"/><path aria-label="25: 75.3418980112; 75: 92.2727233541; hourbbl: Nov 21, 2017; hourbbh: Nov 21, 2017" role="graphics-symbol" aria-roledescription="rect mark" d="M145.16129032258067,187.98702138406824h77.41935483870967v36.28034002053943h-77.41935483870967Z" fill="#4c78a8"/><path aria-label="25: 82.5305119647; 75: 102.54660008; hourbbl: Nov 21, 2017; hourbbh: Nov 21, 2017" role="graphics-symbol" aria-roledescription="rect mark" d="M261.2903225806452,165.97157125616812h77.4193548387097v42.89161739099376h-77.4193548387097Z" fill="#4c78a8"/><path aria-label="25: 78.2041568805; 75: 112.556650418; hourbbl: Nov 21, 2017; hourbbh: Nov 21, 2017" role="graphics-symbol" aria-roledescription="rect mark" d="M377.4193548387097,144.52146338936308h77.4193548387097v73.61248615244887h-77.4193548387097Z" fill="#4c78a8"/><path aria-label="25: 90.1074916961; 75: 116.254202561; hourbbl: Nov 21, 2017; hourbbh: Nov 21, 2017" role="graphics-symbol" aria-roledescription="rect mark" d="M493.5483870967742,136.59813736991126h77.41935483870958v56.028666138348825h-77.41935483870958Z" fill="#4c78a8"/></g><g class="mark-rect role-mark layer_3_marks" role="graphics-object" aria-roledescription="rect mark container"><path aria-label="50: 83.9194040669; 51: 84.2055494615; hour1: Nov 21, 2017; hour2: Nov 21, 2017" role="graphics-symbol" aria-roledescription="rect mark" d="M9.67741935483871,205.2738225824079h116.12903225806451v0.6131687027520911h-116.12903225806451Z" fill="white"/><path aria-label="50: 83.3837468564; 51: 83.6984426693; hour1: Nov 21, 2017; hour2: Nov 21, 2017" role="graphics-symbol" aria-roledescription="rect mark" d="M125.80645161290322,206.36047999437648h116.12903225806453v0.6743481704919247h-116.12903225806453Z" fill="white"/><path aria-label="50: 92.0016156683; 51: 92.3736146351; hour1: Nov 21, 2017; hour2: Nov 21, 2017" role="graphics-symbol" aria-roledescription="rect mark" d="M241.93548387096774,187.7708257819174h116.12903225806451v0.7971406430862089h-116.12903225806451Z" fill="white"/><path aria-label="50: 93.8375387415; 51: 94.4746228519; hour1: Nov 21, 2017; hour2: Nov 21, 2017" role="graphics-symbol" aria-roledescription="rect mark" d="M358.06451612903226,183.2686653173167h116.12903225806451v1.3651802365214394h-116.12903225806451Z" fill="white"/><path aria-label="50: 102.357323331; 51: 102.843075074; hour1: Nov 21, 2017; hour2: Nov 21, 2017" role="graphics-symbol" aria-roledescription="rect mark" d="M474.19354838709677,165.33626769883858h116.12903225806446v1.0408965919899913h-116.12903225806446Z" fill="white"/></g><g class="mark-rect role-mark layer_4_marks" role="graphics-object" aria-roledescription="rect mark container"><path aria-label="Time of Day: Nov 21, 2017 11:00" role="graphics-symbol" aria-roledescription="rect mark" d="M58.064516129032256,0h19.35483870967742v300h-19.35483870967742Z" fill="#4c78a8" opacity="0"/><path aria-label="Time of Day: Nov 21, 2017 12:00" role="graphics-symbol" aria-roledescription="rect mark" d="M174.19354838709677,0h19.35483870967742v300h-19.35483870967742Z" fill="#4c78a8" opacity="0"/><path aria-label="Time of Day: Nov 21, 2017 13:00" role="graphics-symbol" aria-roledescription="rect mark" d="M290.3225806451613,0h19.35483870967742v300h-19.35483870967742Z" fill="#4c78a8" opacity="0"/><path aria-label="Time of Day: Nov 21, 2017 14:00" role="graphics-symbol" aria-roledescription="rect mark" d="M406.4516129032258,0h19.35483870967742v300h-19.35483870967742Z" fill="#4c78a8" opacity="0"/><path aria-label="Time of Day: Nov 21, 2017 15:00" role="graphics-symbol" aria-roledescription="rect mark" d="M522.5806451612904,0h19.35483870967742v300h-19.35483870967742Z" fill="#4c78a8" opacity="0"/></g><g class="mark-group role-title"><g transform="translate(300,-34)"><path class="background" aria-hidden="true" d="M0,0h0v0h0Z" pointer-events="none"/><g><g class="mark-text role-title-text" role="graphics-symbol" aria-roledescription="title" aria-label="Title text 'NO2 prediction levels - Box Plot Chart'" pointer-events="none"><text text-anchor="middle" transform="translate(0,16)" font-family="sans-serif" font-size="20px" font-weight="bold" fill="#000" opacity="1">NO2 prediction levels - Box Plot Chart</text></g></g><path class="foreground" aria-hidden="true" d="" pointer-events="none" display="none"/></g></g><g class="mark-group role-axis" role="graphics-symbol" aria-roledescription="axis" aria-label="X-axis titled 'Time of Day' for a discrete scale with 31 values: November 21, 2017 10:00, November 21, 2017 10:00, November 21, 2017 10:00, November 21, 2017 11:00, November 21, 2017 11:00, ending with November 21, 2017 15:00"><g transform="translate(0.5,300.5)"><path class="background" aria-hidden="true" d="M0,0h0v0h0Z" pointer-events="none"/><g><g class="mark-rule role-axis-tick" pointer-events="none"><line transform="translate(9,0)" x2="0" y2="5" stroke="#888" stroke-width="1" opacity="1"/><line transform="translate(29,0)" x2="0" y2="5" stroke="#888" stroke-width="1" opacity="1"/><line transform="translate(48,0)" x2="0" y2="5" stroke="#888" stroke-width="1" opacity="1"/><line transform="translate(67,0)" x2="0" y2="5" stroke="#888" stroke-width="1" opacity="1"/><line transform="translate(87,0)" x2="0" y2="5" stroke="#888" stroke-width="1" opacity="1"/><line transform="translate(106,0)" x2="0" y2="5" stroke="#888" stroke-width="1" opacity="1"/><line transform="translate(125,0)" x2="0" y2="5" stroke="#888" stroke-width="1" opacity="1"/><line transform="translate(145,0)" x2="0" y2="5" stroke="#888" stroke-width="1" opacity="1"/><line transform="translate(164,0)" x2="0" y2="5" stroke="#888" stroke-width="1" opacity="1"/><line transform="translate(183,0)" x2="0" y2="5" stroke="#888" stroke-width="1" opacity="1"/><line transform="translate(203,0)" x2="0" y2="5" stroke="#888" stroke-width="1" opacity="1"/><line transform="translate(222,0)" x2="0" y2="5" stroke="#888" stroke-width="1" opacity="1"/><line transform="translate(241,0)" x2="0" y2="5" stroke="#888" stroke-width="1" opacity="1"/><line transform="translate(261,0)" x2="0" y2="5" stroke="#888" stroke-width="1" opacity="1"/><line transform="translate(280,0)" x2="0" y2="5" stroke="#888" stroke-width="1" opacity="1"/><line transform="translate(300,0)" x2="0" y2="5" stroke="#888" stroke-width="1" opacity="1"/><line transform="translate(319,0)" x2="0" y2="5" stroke="#888" stroke-width="1" opacity="1"/><line transform="translate(338,0)" x2="0" y2="5" stroke="#888" stroke-width="1" opacity="1"/><line transform="translate(358,0)" x2="0" y2="5" stroke="#888" stroke-width="1" opacity="1"/><line transform="translate(377,0)" x2="0" y2="5" stroke="#888" stroke-width="1" opacity="1"/><line transform="translate(396,0)" x2="0" y2="5" stroke="#888" stroke-width="1" opacity="1"/><line transform="translate(416,0)" x2="0" y2="5" stroke="#888" stroke-width="1" opacity="1"/><line transform="translate(435,0)" x2="0" y2="5" stroke="#888" stroke-width="1" opacity="1"/><line transform="translate(454,0)" x2="0" y2="5" stroke="#888" stroke-width="1" opacity="1"/><line transform="translate(474,0)" x2="0" y2="5" stroke="#888" stroke-width="1" opacity="1"/><line transform="translate(493,0)" x2="0" y2="5" stroke="#888" stroke-width="1" opacity="1"/><line transform="translate(512,0)" x2="0" y2="5" stroke="#888" stroke-width="1" opacity="1"/><line transform="translate(532,0)" x2="0" y2="5" stroke="#888" stroke-width="1" opacity="1"/><line transform="translate(551,0)" x2="0" y2="5" stroke="#888" stroke-width="1" opacity="1"/><line transform="translate(570,0)" x2="0" y2="5" stroke="#888" stroke-width="1" opacity="1"/><line transform="translate(590,0)" x2="0" y2="5" stroke="#888" stroke-width="1" opacity="1"/></g><g class="mark-text role-axis-label" pointer-events="none"><text text-anchor="middle" transform="translate(9.17741935483871,23)" font-family="sans-serif" font-size="20px" fill="#000" opacity="1"/><text text-anchor="middle" transform="translate(28.532258064516128,23)" font-family="sans-serif" font-size="20px" fill="#000" opacity="1"/><text text-anchor="middle" transform="translate(47.88709677419355,23)" font-family="sans-serif" font-size="20px" fill="#000" opacity="1"/><text text-anchor="middle" transform="translate(67.24193548387096,23)" font-family="sans-serif" font-size="20px" fill="#000" opacity="1">t</text><text text-anchor="middle" transform="translate(86.59677419354838,23)" font-family="sans-serif" font-size="20px" fill="#000" opacity="1"/><text text-anchor="middle" transform="translate(105.95161290322581,23)" font-family="sans-serif" font-size="20px" fill="#000" opacity="1"/><text text-anchor="middle" transform="translate(125.30645161290322,23)" font-family="sans-serif" font-size="20px" fill="#000" opacity="1"/><text text-anchor="middle" transform="translate(144.66129032258067,23)" font-family="sans-serif" font-size="20px" fill="#000" opacity="1"/><text text-anchor="middle" transform="translate(164.01612903225808,23)" font-family="sans-serif" font-size="20px" fill="#000" opacity="1"/><text text-anchor="middle" transform="translate(183.3709677419355,23)" font-family="sans-serif" font-size="20px" fill="#000" opacity="1">t</text><text text-anchor="middle" transform="translate(202.72580645161293,23)" font-family="sans-serif" font-size="20px" fill="#000" opacity="1"/><text text-anchor="middle" transform="translate(222.08064516129033,23)" font-family="sans-serif" font-size="20px" fill="#000" opacity="1"/><text text-anchor="middle" transform="translate(241.43548387096774,23)" font-family="sans-serif" font-size="20px" fill="#000" opacity="1"/><text text-anchor="middle" transform="translate(260.7903225806452,23)" font-family="sans-serif" font-size="20px" fill="#000" opacity="1"/><text text-anchor="middle" transform="translate(280.1451612903226,23)" font-family="sans-serif" font-size="20px" fill="#000" opacity="1"/><text text-anchor="middle" transform="translate(299.5,23)" font-family="sans-serif" font-size="20px" fill="#000" opacity="1">t</text><text text-anchor="middle" transform="translate(318.85483870967744,23)" font-family="sans-serif" font-size="20px" fill="#000" opacity="1"/><text text-anchor="middle" transform="translate(338.2096774193549,23)" font-family="sans-serif" font-size="20px" fill="#000" opacity="1"/><text text-anchor="middle" transform="translate(357.56451612903226,23)" font-family="sans-serif" font-size="20px" fill="#000" opacity="1"/><text text-anchor="middle" transform="translate(376.9193548387097,23)" font-family="sans-serif" font-size="20px" fill="#000" opacity="1"/><text text-anchor="middle" transform="translate(396.27419354838713,23)" font-family="sans-serif" font-size="20px" fill="#000" opacity="1"/><text text-anchor="middle" transform="translate(415.6290322580645,23)" font-family="sans-serif" font-size="20px" fill="#000" opacity="1">t</text><text text-anchor="middle" transform="translate(434.98387096774195,23)" font-family="sans-serif" font-size="20px" fill="#000" opacity="1"/><text text-anchor="middle" transform="translate(454.3387096774194,23)" font-family="sans-serif" font-size="20px" fill="#000" opacity="1"/><text text-anchor="middle" transform="translate(473.69354838709677,23)" font-family="sans-serif" font-size="20px" fill="#000" opacity="1"/><text text-anchor="middle" transform="translate(493.0483870967742,23)" font-family="sans-serif" font-size="20px" fill="#000" opacity="1"/><text text-anchor="middle" transform="translate(512.4032258064516,23)" font-family="sans-serif" font-size="20px" fill="#000" opacity="1"/><text text-anchor="middle" transform="translate(531.758064516129,23)" font-family="sans-serif" font-size="20px" fill="#000" opacity="1">t</text><text text-anchor="middle" transform="translate(551.1129032258065,23)" font-family="sans-serif" font-size="20px" fill="#000" opacity="1"/><text text-anchor="middle" transform="translate(570.4677419354838,23)" font-family="sans-serif" font-size="20px" fill="#000" opacity="1"/><text text-anchor="middle" transform="translate(589.8225806451612,23)" font-family="sans-serif" font-size="20px" fill="#000" opacity="1"/></g><g class="mark-rule role-axis-domain" pointer-events="none"><line transform="translate(0,0)" x2="600" y2="0" stroke="#888" stroke-width="1" opacity="1"/></g><g class="mark-text role-axis-title" pointer-events="none"><text text-anchor="middle" transform="translate(300,47)" font-family="sans-serif" font-size="20px" font-weight="bold" fill="#000" opacity="1">Time of Day</text></g></g><path class="foreground" aria-hidden="true" d="" pointer-events="none" display="none"/></g></g></g><path class="foreground" aria-hidden="true" d="" display="none"/></g></g></g></svg>