<svg xmlns="http://www.w3.org/2000/svg" xmlns:xlink="http://www.w3.org/1999/xlink" version="1.1" class="marks" width="675" height="395" viewBox="0 0 675 395"><rect width="675" height="395" fill="white"/><g fill="none" stroke-miterlimit="10" transform="translate(70,39)"><g class="mark-group role-frame root" role="graphics-object" aria-roledescription="group mark container"><g transform="translate(0,0)"><path class="background" aria-hidden="true" d="M0.5,0.5h600v300h-600Z" stroke="#ddd"/><g><g class="mark-group role-axis" aria-hidden="true"><g transform="translate(0.5,300.5)"><path class="background" aria-hidden="true" d="M0,0h0v0h0Z" pointer-events="none"/><g><g class="mark-rule role-axis-grid" pointer-events="none"><line transform="translate(60,-300)" x2="0" y2="300" stroke="#ddd" stroke-width="1" opacity="1"/><line transform="translate(180,-300)" x2="0" y2="300" stroke="#ddd" stroke-width="1" opacity="1"/><line transform="translate(300,-300)" x2="0" y2="300" stroke="#ddd" stroke-width="1" opacity="1"/><line transform="translate(420,-300)" x2="0" y2="300" stroke="#ddd" stroke-width="1" opacity="1"/><line transform="translate(540,-300)" x2="0" y2="300" stroke="#ddd" stroke-width="1" opacity="1"/></g></g><path class="foreground" aria-hidden="true" d="" pointer-events="none" display="none"/></g></g><g class="mark-group role-axis" aria-hidden="true"><g transform="translate(0.5,0.5)"><path class="background" aria-hidden="true" d="M0,0h0v0h0Z" pointer-events="none"/><g><g class="mark-rule role-axis-grid" pointer-events="none"><line transform="translate(0,300)" x2="600" y2="0" stroke="#ddd" stroke-width="1" opacity="1"/><line transform="translate(0,257)" x2="600" y2="0" stroke="#ddd" stroke-width="1" opacity="1"/><line transform="translate(0,214)" x2="600" y2="0" stroke="#ddd" stroke-width="1" opacity="1"/><line transform="translate(0,171)" x2="600" y2="0" stroke="#ddd" stroke-width="1" opacity="1"/><line transform="translate(0,129)" x2="600" y2="0" stroke="#ddd" stroke-width="1" opacity="1"/><line transform="translate(0,86)" x2="600" y2="0" stroke="#ddd" stroke-width="1" opacity="1"/><line transform="translate(0,43)" x2="600" y2="0" stroke="#ddd" stroke-width="1" opacity="1"/><line transform="translate(0,0)" x2="600" y2="0" stroke="#ddd" stroke-width="1" opacity="1"/></g></g><path class="foreground" aria-hidden="true" d="" pointer-events="none" display="none"/></g></g><g class="mark-group role-axis" role="graphics-symbol" aria-roledescription="axis" aria-label="X-axis titled 'Time of Day' for a discrete scale with 5 values: t0, t1, t2, t3, t4"><g transform="translate(0.5,300.5)"><path class="background" aria-hidden="true" d="M0,0h0v0h0Z" pointer-events="none"/><g><g class="mark-rule role-axis-tick" pointer-events="none"><line transform="translate(60,0)" x2="0" y2="5" stroke="#888" stroke-width="1" opacity="1"/><line transform="translate(180,0)" x2="0" y2="5" stroke="#888" stroke-width="1" opacity="1"/><line transform="translate(300,0)" x2="0" y2="5" stroke="#888" stroke-width="1" opacity="1"/><line transform="translate(420,0)" x2="0" y2="5" stroke="#888" stroke-width="1" opacity="1"/><line transform="translate(540,0)" x2="0" y2="5" stroke="#888" stroke-width="1" opacity="1"/></g><g class="mark-text role-axis-label" pointer-events="none"><text text-anchor="middle" transform="translate(60,23)" font-family="sans-serif" font-size="20px" fill="#000" opacity="1">t0</text><text text-anchor="middle" transform="translate(180,23)" font-family="sans-serif" font-size="20px" fill="#000" opacity="1">t1</text><text text-anchor="middle" transform="translate(300,23)" font-family="sans-serif" font-size="20px" fill="#000" opacity="1">t2</text><text text-anchor="middle" transform="translate(420,23)" font-family="sans-serif" font-size="20px" fill="#000" opacity="1">t3</text><text text-anchor="middle" transform="translate(540,23)" font-family="sans-serif" font-size="20px" fill="#000" opacity="1">t4</text></g><g class="mark-rule role-axis-domain" pointer-events="none"><line transform="translate(0,0)" x2="600" y2="0" stroke="#888" stroke-width="1" opacity="1"/></g><g class="mark-text role-axis-title" pointer-events="none"><text text-anchor="middle" transform="translate(300,47)" font-family="sans-serif" font-size="20px" font-weight="bold" fill="#000" opacity="1">Time of Day</text></g></g><path class="foreground" aria-hidden="true" d="" pointer-events="none" display="none"/></g></g><g class="mark-group role-axis" role="graphics-symbol" aria-roledescription="axis" aria-label="Y-axis titled 'NO2 level (µg/m3)' for a linear scale with values from 40 to 180"><g transform="translate(0.5,0.5)"><path class="background" aria-hidden="true" d="M0,0h0v0h0Z" pointer-events="none"/><g><g class="mark-rule role-axis-tick" pointer-events="none"><line transform="translate(0,300)" x2="-5" y2="0" stroke="#888" stroke-width="1" opacity="1"/><line transform="translate(0,257)" x2="-5" y2="0" stroke="#888" stroke-width="1" opacity="1"/><line transform="translate(0,214)" x2="-5" y2="0" stroke="#888" stroke-width="1" opacity="1"/><line transform="translate(0,171)" x2="-5" y2="0" stroke="#888" stroke-width="1" opacity="1"/><line transform="translate(0,129)" x2="-5" y2="0" stroke="#888" stroke-width="1" opacity="1"/><line transform="translate(0,86)" x2="-5" y2="0" stroke="#888" stroke-width="1" opacity="1"/><line transform="translate(0,43)" x2="-5" y2="0" stroke="#888" stroke-width="1" opacity="1"/><line transform="translate(0,0)" x2="-5" y2="0" stroke="#888" stroke-width="1" opacity="1"/></g><g class="mark-text role-axis-label" pointer-events="none"><text text-anchor="end" transform="translate(-7,306)" font-family="sans-serif" font-size="20px" fill="#000" opacity="1">40</text><text text-anchor="end" transform="translate(-7,263.14285714285717)" font-family="sans-serif" font-size="20px" fill="#000" opacity="1">60</text><text text-anchor="end" transform="translate(-7,220.28571428571428)" font-family="sans-serif" font-size="20px" fill="#000" opacity="1">80</text><text text-anchor="end" transform="translate(-7,177.42857142857142)" font-family="sans-serif" font-size="20px" fill="#000" opacity="1">100</text><text text-anchor="end" transform="translate(-7,134.57142857142858)" font-family="sans-serif" font-size="20px" fill="#000" opacity="1">120</text><text text-anchor="end" transform="translate(-7,91.71428571428571)" font-family="sans-serif" font-size="20px" fill="#000" opacity="1">140</text><text text-anchor="end" transform="translate(-7,48.85714285714287)" font-family="sans-serif" font-size="20px" fill="#000" opacity="1">160</text><text text-anchor="end" transform="translate(-7,6)" font-family="sans-serif" font-size="20px" fill="#000" opacity="1">180</text></g><g class="mark-rule role-axis-domain" pointer-events="none"><line transform="translate(0,300)" x2="0" y2="-300" stroke="#888" stroke-width="1" opacity="1"/></g><g class="mark-text role-axis-title" pointer-events="none"><text text-anchor="middle" transform="translate(-44.369140625,150) rotate(-90) translate(0,-4)" font-family="sans-serif" font-size="20px" font-weight="bold" fill="#000" opacity="1">NO2 level (µg/m3)</text></g></g><path class="foreground" aria-hidden="true" d="" pointer-events="none" display="none"/></g></g><g class="mark-symbol role-mark layer_0_marks" role="graphics-object" aria-roledescription="symbol mark container"><path aria-label="Time of Day: t0; NO2 level (µg/m3): 67.1003925734" role="graphics-symbol" aria-roledescription="point" transform="translate(60,241.92773019975434)" d="M5,0A5,5,0,1,1,-5,0A5,5,0,1,1,5,0" stroke="darkblue" stroke-width="2" opacity="0.7"/><path aria-label="Time of Day: t1; NO2 level (µg/m3): 65.097807268" role="graphics-symbol" aria-roledescription="point" transform="translate(180,246.21898442567388)" d="M5,0A5,5,0,1,1,-5,0A5,5,0,1,1,5,0" stroke="darkblue" stroke-width="2" opacity="0.7"/><path aria-label="Time of Day: t2; NO2 level (µg/m3): 70.5711794464" role="graphics-symbol" aria-roledescription="point" transform="translate(300,234.49032975774372)" d="M5,0A5,5,0,1,1,-5,0A5,5,0,1,1,5,0" stroke="darkblue" stroke-width="2" opacity="0.7"/><path aria-label="Time of Day: t3; NO2 level (µg/m3): 60.1220640022" role="graphics-symbol" aria-roledescription="point" transform="translate(420,256.88129142378955)" d="M5,0A5,5,0,1,1,-5,0A5,5,0,1,1,5,0" stroke="darkblue" stroke-width="2" opacity="0.7"/><path aria-label="Time of Day: t4; NO2 level (µg/m3): 74.9860361756" role="graphics-symbol" aria-roledescription="point" transform="translate(540,225.02992248092886)" d="M5,0A5,5,0,1,1,-5,0A5,5,0,1,1,5,0" stroke="darkblue" stroke-width="2" opacity="0.7"/></g><g class="mark-symbol role-mark layer_1_marks" role="graphics-object" aria-roledescription="symbol mark container"><path aria-label="Time of Day: t0; NO2 level (µg/m3): 72.8935601287" role="graphics-symbol" aria-roledescription="point" transform="translate(60,229.51379972430877)" d="M5,0A5,5,0,1,1,-5,0A5,5,0,1,1,5,0" stroke="darkblue" stroke-width="2" opacity="0.7"/><path aria-label="Time of Day: t1; NO2 level (µg/m3): 71.3472914811" role="graphics-symbol" aria-roledescription="point" transform="translate(180,232.8272325404064)" d="M5,0A5,5,0,1,1,-5,0A5,5,0,1,1,5,0" stroke="darkblue" stroke-width="2" opacity="0.7"/><path aria-label="Time of Day: t2; NO2 level (µg/m3): 77.8523040912" role="graphics-symbol" aria-roledescription="point" transform="translate(300,218.88791980447303)" d="M5,0A5,5,0,1,1,-5,0A5,5,0,1,1,5,0" stroke="darkblue" stroke-width="2" opacity="0.7"/><path aria-label="Time of Day: t3; NO2 level (µg/m3): 70.9063229209" role="graphics-symbol" aria-roledescription="point" transform="translate(420,233.77216516954283)" d="M5,0A5,5,0,1,1,-5,0A5,5,0,1,1,5,0" stroke="darkblue" stroke-width="2" opacity="0.7"/><path aria-label="Time of Day: t4; NO2 level (µg/m3): 84.1440467698" role="graphics-symbol" aria-roledescription="point" transform="translate(540,205.40561406467467)" d="M5,0A5,5,0,1,1,-5,0A5,5,0,1,1,5,0" stroke="darkblue" stroke-width="2" opacity="0.7"/></g><g class="mark-symbol role-mark layer_2_marks" role="graphics-object" aria-roledescription="symbol mark container"><path aria-label="Time of Day: t0; NO2 level (µg/m3): 76.5710413626" role="graphics-symbol" aria-roledescription="point" transform="translate(60,221.63348279432725)" d="M5,0A5,5,0,1,1,-5,0A5,5,0,1,1,5,0" stroke="darkblue" stroke-width="2" opacity="0.7"/><path aria-label="Time of Day: t1; NO2 level (µg/m3): 75.3418980112" role="graphics-symbol" aria-roledescription="point" transform="translate(180,224.26736140460767)" d="M5,0A5,5,0,1,1,-5,0A5,5,0,1,1,5,0" stroke="darkblue" stroke-width="2" opacity="0.7"/><path aria-label="Time of Day: t2; NO2 level (µg/m3): 82.5305119647" role="graphics-symbol" aria-roledescription="point" transform="translate(300,208.86318864716188)" d="M5,0A5,5,0,1,1,-5,0A5,5,0,1,1,5,0" stroke="darkblue" stroke-width="2" opacity="0.7"/><path aria-label="Time of Day: t3; NO2 level (µg/m3): 78.2041568805" role="graphics-symbol" aria-roledescription="point" transform="translate(420,218.13394954181194)" d="M5,0A5,5,0,1,1,-5,0A5,5,0,1,1,5,0" stroke="darkblue" stroke-width="2" opacity="0.7"/><path aria-label="Time of Day: t4; NO2 level (µg/m3): 90.1074916961" role="graphics-symbol" aria-roledescription="point" transform="translate(540,192.62680350826008)" d="M5,0A5,5,0,1,1,-5,0A5,5,0,1,1,5,0" stroke="darkblue" stroke-width="2" opacity="0.7"/></g><g class="mark-symbol role-mark layer_3_marks" role="graphics-object" aria-roledescription="symbol mark container"><path aria-label="Time of Day: t0; NO2 level (µg/m3): 79.6401956963" role="graphics-symbol" aria-roledescription="point" transform="translate(60,215.0567235079566)" d="M5,0A5,5,0,1,1,-5,0A5,5,0,1,1,5,0" stroke="darkblue" stroke-width="2" opacity="0.7"/><path aria-label="Time of Day: t1; NO2 level (µg/m3): 78.6912476682" role="graphics-symbol" aria-roledescription="point" transform="translate(180,217.0901835680514)" d="M5,0A5,5,0,1,1,-5,0A5,5,0,1,1,5,0" stroke="darkblue" stroke-width="2" opacity="0.7"/><path aria-label="Time of Day: t2; NO2 level (µg/m3): 86.4667679137" role="graphics-symbol" aria-roledescription="point" transform="translate(300,200.42835447061873)" d="M5,0A5,5,0,1,1,-5,0A5,5,0,1,1,5,0" stroke="darkblue" stroke-width="2" opacity="0.7"/><path aria-label="Time of Day: t3; NO2 level (µg/m3): 84.5633860846" role="graphics-symbol" aria-roledescription="point" transform="translate(420,204.50702981866877)" d="M5,0A5,5,0,1,1,-5,0A5,5,0,1,1,5,0" stroke="darkblue" stroke-width="2" opacity="0.7"/><path aria-label="Time of Day: t4; NO2 level (µg/m3): 95.1706626443" role="graphics-symbol" aria-roledescription="point" transform="translate(540,181.77715147652148)" d="M5,0A5,5,0,1,1,-5,0A5,5,0,1,1,5,0" stroke="darkblue" stroke-width="2" opacity="0.7"/></g><g class="mark-symbol role-mark layer_4_marks" role="graphics-object" aria-roledescription="symbol mark container"><path aria-label="Time of Day: t0; NO2 level (µg/m3): 82.4994773591" role="graphics-symbol" aria-roledescription="point" transform="translate(60,208.92969137342527)" d="M5,0A5,5,0,1,1,-5,0A5,5,0,1,1,5,0" stroke="darkblue" stroke-width="2" opacity="0.7"/><path aria-label="Time of Day: t1; NO2 level (µg/m3): 81.823823615" role="graphics-symbol" aria-roledescription="point" transform="translate(180,210.37752082490974)" d="M5,0A5,5,0,1,1,-5,0A5,5,0,1,1,5,0" stroke="darkblue" stroke-width="2" opacity="0.7"/><path aria-label="Time of Day: t2; NO2 level (µg/m3): 90.1591347803" role="graphics-symbol" aria-roledescription="point" transform="translate(300,192.5161397565006)" d="M5,0A5,5,0,1,1,-5,0A5,5,0,1,1,5,0" stroke="darkblue" stroke-width="2" opacity="0.7"/><path aria-label="Time of Day: t3; NO2 level (µg/m3): 90.7075611468" role="graphics-symbol" aria-roledescription="point" transform="translate(420,191.3409403997631)" d="M5,0A5,5,0,1,1,-5,0A5,5,0,1,1,5,0" stroke="darkblue" stroke-width="2" opacity="0.7"/><path aria-label="Time of Day: t4; NO2 level (µg/m3): 99.9564539748" role="graphics-symbol" aria-roledescription="point" transform="translate(540,171.52188433964196)" d="M5,0A5,5,0,1,1,-5,0A5,5,0,1,1,5,0" stroke="darkblue" stroke-width="2" opacity="0.7"/></g><g class="mark-symbol role-mark layer_5_marks" role="graphics-object" aria-roledescription="symbol mark container"><path aria-label="Time of Day: t0; NO2 level (µg/m3): 85.3634769362" role="graphics-symbol" aria-roledescription="point" transform="translate(60,202.7925494225031)" d="M5,0A5,5,0,1,1,-5,0A5,5,0,1,1,5,0" stroke="darkblue" stroke-width="2" opacity="0.7"/><path aria-label="Time of Day: t1; NO2 level (µg/m3): 84.9730500565" role="graphics-symbol" aria-roledescription="point" transform="translate(180,203.62917845042526)" d="M5,0A5,5,0,1,1,-5,0A5,5,0,1,1,5,0" stroke="darkblue" stroke-width="2" opacity="0.7"/><path aria-label="Time of Day: t2; NO2 level (µg/m3): 93.8813362234" role="graphics-symbol" aria-roledescription="point" transform="translate(300,184.53999380708876)" d="M5,0A5,5,0,1,1,-5,0A5,5,0,1,1,5,0" stroke="darkblue" stroke-width="2" opacity="0.7"/><path aria-label="Time of Day: t3; NO2 level (µg/m3): 97.0743424215" role="graphics-symbol" aria-roledescription="point" transform="translate(420,177.69783766812438)" d="M5,0A5,5,0,1,1,-5,0A5,5,0,1,1,5,0" stroke="darkblue" stroke-width="2" opacity="0.7"/><path aria-label="Time of Day: t4; NO2 level (µg/m3): 104.81528833" role="graphics-symbol" aria-roledescription="point" transform="translate(540,161.11009643536534)" d="M5,0A5,5,0,1,1,-5,0A5,5,0,1,1,5,0" stroke="darkblue" stroke-width="2" opacity="0.7"/></g><g class="mark-symbol role-mark layer_6_marks" role="graphics-object" aria-roledescription="symbol mark container"><path aria-label="Time of Day: t0; NO2 level (µg/m3): 88.4256905606" role="graphics-symbol" aria-roledescription="point" transform="translate(60,196.23066308444567)" d="M5,0A5,5,0,1,1,-5,0A5,5,0,1,1,5,0" stroke="darkblue" stroke-width="2" opacity="0.7"/><path aria-label="Time of Day: t1; NO2 level (µg/m3): 88.3525567973" role="graphics-symbol" aria-roledescription="point" transform="translate(180,196.38737829150656)" d="M5,0A5,5,0,1,1,-5,0A5,5,0,1,1,5,0" stroke="darkblue" stroke-width="2" opacity="0.7"/><path aria-label="Time of Day: t2; NO2 level (µg/m3): 97.886705468" role="graphics-symbol" aria-roledescription="point" transform="translate(300,175.95705971145327)" d="M5,0A5,5,0,1,1,-5,0A5,5,0,1,1,5,0" stroke="darkblue" stroke-width="2" opacity="0.7"/><path aria-label="Time of Day: t3; NO2 level (µg/m3): 104.116910002" role="graphics-symbol" aria-roledescription="point" transform="translate(420,162.60662142353422)" d="M5,0A5,5,0,1,1,-5,0A5,5,0,1,1,5,0" stroke="darkblue" stroke-width="2" opacity="0.7"/><path aria-label="Time of Day: t4; NO2 level (µg/m3): 110.081030248" role="graphics-symbol" aria-roledescription="point" transform="translate(540,149.82636375479214)" d="M5,0A5,5,0,1,1,-5,0A5,5,0,1,1,5,0" stroke="darkblue" stroke-width="2" opacity="0.7"/></g><g class="mark-symbol role-mark layer_7_marks" role="graphics-object" aria-roledescription="symbol mark container"><path aria-label="Time of Day: t0; NO2 level (µg/m3): 91.9638826604" role="graphics-symbol" aria-roledescription="point" transform="translate(60,188.64882287058356)" d="M5,0A5,5,0,1,1,-5,0A5,5,0,1,1,5,0" stroke="darkblue" stroke-width="2" opacity="0.7"/><path aria-label="Time of Day: t1; NO2 level (µg/m3): 92.2727233541" role="graphics-symbol" aria-roledescription="point" transform="translate(180,187.98702138406824)" d="M5,0A5,5,0,1,1,-5,0A5,5,0,1,1,5,0" stroke="darkblue" stroke-width="2" opacity="0.7"/><path aria-label="Time of Day: t2; NO2 level (µg/m3): 102.54660008" role="graphics-symbol" aria-roledescription="point" transform="translate(300,165.97157125616812)" d="M5,0A5,5,0,1,1,-5,0A5,5,0,1,1,5,0" stroke="darkblue" stroke-width="2" opacity="0.7"/><path aria-label="Time of Day: t3; NO2 level (µg/m3): 112.556650418" role="graphics-symbol" aria-roledescription="point" transform="translate(420,144.52146338936308)" d="M5,0A5,5,0,1,1,-5,0A5,5,0,1,1,5,0" stroke="darkblue" stroke-width="2" opacity="0.7"/><path aria-label="Time of Day: t4; NO2 level (µg/m3): 116.254202561" role="graphics-symbol" aria-roledescription="point" transform="translate(540,136.59813736991126)" d="M5,0A5,5,0,1,1,-5,0A5,5,0,1,1,5,0" stroke="darkblue" stroke-width="2" opacity="0.7"/></g><g class="mark-symbol role-mark layer_8_marks" role="graphics-object" aria-roledescription="symbol mark container"><path aria-label="Time of Day: t0; NO2 level (µg/m3): 96.5904419076" role="graphics-symbol" aria-roledescription="point" transform="translate(60,178.73476734084565)" d="M5,0A5,5,0,1,1,-5,0A5,5,0,1,1,5,0" stroke="darkblue" stroke-width="2" opacity="0.7"/><path aria-label="Time of Day: t1; NO2 level (µg/m3): 97.4227133835" role="graphics-symbol" aria-roledescription="point" transform="translate(180,176.95132846384038)" d="M5,0A5,5,0,1,1,-5,0A5,5,0,1,1,5,0" stroke="darkblue" stroke-width="2" opacity="0.7"/><path aria-label="Time of Day: t2; NO2 level (µg/m3): 108.689889428" role="graphics-symbol" aria-roledescription="point" transform="translate(300,152.80737979691799)" d="M5,0A5,5,0,1,1,-5,0A5,5,0,1,1,5,0" stroke="darkblue" stroke-width="2" opacity="0.7"/><path aria-label="Time of Day: t3; NO2 level (µg/m3): 124.081611591" role="graphics-symbol" aria-roledescription="point" transform="translate(420,119.82511801848165)" d="M5,0A5,5,0,1,1,-5,0A5,5,0,1,1,5,0" stroke="darkblue" stroke-width="2" opacity="0.7"/><path aria-label="Time of Day: t4; NO2 level (µg/m3): 124.466626164" role="graphics-symbol" aria-roledescription="point" transform="translate(540,119.00008679195953)" d="M5,0A5,5,0,1,1,-5,0A5,5,0,1,1,5,0" stroke="darkblue" stroke-width="2" opacity="0.7"/></g><g class="mark-symbol role-mark layer_9_marks" role="graphics-object" aria-roledescription="symbol mark container"><path aria-label="Time of Day: t0; NO2 level (µg/m3): 104.892270434" role="graphics-symbol" aria-roledescription="point" transform="translate(60,160.9451347832591)" d="M5,0A5,5,0,1,1,-5,0A5,5,0,1,1,5,0" stroke="darkblue" stroke-width="2" opacity="0.7"/><path aria-label="Time of Day: t1; NO2 level (µg/m3): 106.728486433" role="graphics-symbol" aria-roledescription="point" transform="translate(180,157.0103862149907)" d="M5,0A5,5,0,1,1,-5,0A5,5,0,1,1,5,0" stroke="darkblue" stroke-width="2" opacity="0.7"/><path aria-label="Time of Day: t2; NO2 level (µg/m3): 119.848930866" role="graphics-symbol" aria-roledescription="point" transform="translate(300,128.89514814411612)" d="M5,0A5,5,0,1,1,-5,0A5,5,0,1,1,5,0" stroke="darkblue" stroke-width="2" opacity="0.7"/><path aria-label="Time of Day: t3; NO2 level (µg/m3): 146.150769552" role="graphics-symbol" aria-roledescription="point" transform="translate(420,72.53406524506435)" d="M5,0A5,5,0,1,1,-5,0A5,5,0,1,1,5,0" stroke="darkblue" stroke-width="2" opacity="0.7"/><path aria-label="Time of Day: t4; NO2 level (µg/m3): 139.588150452" role="graphics-symbol" aria-roledescription="point" transform="translate(540,86.59682045897948)" d="M5,0A5,5,0,1,1,-5,0A5,5,0,1,1,5,0" stroke="darkblue" stroke-width="2" opacity="0.7"/></g><g class="mark-line role-mark layer_10_marks" role="graphics-object" aria-roledescription="line mark container"><path aria-label="Time of Day: t0; NO2 level (µg/m3): 83.9194040669" role="graphics-symbol" aria-roledescription="line mark" d="M60,205.88699128515998L180,207.0348281648684L300,188.56796642500362L420,184.63384555383814L540,166.37716429082857" stroke="lightblue" stroke-width="2"/></g><g class="mark-group role-title"><g transform="translate(300,-34)"><path class="background" aria-hidden="true" d="M0,0h0v0h0Z" pointer-events="none"/><g><g class="mark-text role-title-text" role="graphics-symbol" aria-roledescription="title" aria-label="Title text 'NO2 prediction levels - Dot Chart'" pointer-events="none"><text text-anchor="middle" transform="translate(0,16)" font-family="sans-serif" font-size="20px" font-weight="bold" fill="#000" opacity="1">NO2 prediction levels - Dot Chart</text></g></g><path class="foreground" aria-hidden="true" d="" pointer-events="none" display="none"/></g></g></g><path class="foreground" aria-hidden="true" d="" display="none"/></g></g></g></svg>