<svg xmlns="http://www.w3.org/2000/svg" xmlns:xlink="http://www.w3.org/1999/xlink" version="1.1" class="marks" width="675" height="395" viewBox="0 0 675 395"><rect width="675" height="395" fill="white"/><g fill="none" stroke-miterlimit="10" transform="translate(70,39)"><g class="mark-group role-frame root" role="graphics-object" aria-roledescription="group mark container"><g transform="translate(0,0)"><path class="background" aria-hidden="true" d="M0.5,0.5h600v300h-600Z" stroke="#ddd"/><g><g class="mark-group role-axis" aria-hidden="true"><g transform="translate(0.5,300.5)"><path class="background" aria-hidden="true" d="M0,0h0v0h0Z" pointer-events="none"/><g><g class="mark-rule role-axis-grid" pointer-events="none"><line transform="translate(60,-300)" x2="0" y2="300" stroke="#ddd" stroke-width="1" opacity="1"/><line transform="translate(180,-300)" x2="0" y2="300" stroke="#ddd" stroke-width="1" opacity="1"/><line transform="translate(300,-300)" x2="0" y2="300" stroke="#ddd" stroke-width="1" opacity="1"/><line transform="translate(420,-300)" x2="0" y2="300" stroke="#ddd" stroke-width="1" opacity="1"/><line transform="translate(540,-300)" x2="0" y2="300" stroke="#ddd" stroke-width="1" opacity="1"/></g></g><path class="foreground" aria-hidden="true" d="" pointer-events="none" display="none"/></g></g><g class="mark-group role-axis" aria-hidden="true"><g transform="translate(0.5,0.5)"><path class="background" aria-hidden="true" d="M0,0h0v0h0Z" pointer-events="none"/><g><g class="mark-rule role-axis-grid" pointer-events="none"><line transform="translate(0,300)" x2="600" y2="0" stroke="#ddd" stroke-width="1" opacity="1"/><line transform="translate(0,257)" x2="600" y2="0" stroke="#ddd" stroke-width="1" opacity="1"/><line transform="translate(0,214)" x2="600" y2="0" stroke="#ddd" stroke-width="1" opacity="1"/><line transform="translate(0,171)" x2="600" y2="0" stroke="#ddd" stroke-width="1" opacity="1"/><line transform="translate(0,129)" x2="600" y2="0" stroke="#ddd" stroke-width="1" opacity="1"/><line transform="translate(0,86)" x2="600" y2="0" stroke="#ddd" stroke-width="1" opacity="1"/><line transform="translate(0,43)" x2="600" y2="0" stroke="#ddd" stroke-width="1" opacity="1"/><line transform="translate(0,0)" x2="600" y2="0" stroke="#ddd" stroke-width="1" opacity="1"/></g></g><path class="foreground" aria-hidden="true" d="" pointer-events="none" display="none"/></g></g><g class="mark-group role-axis" role="graphics-symbol" aria-roledescription="axis" aria-label="X-axis titled 'Time of Day' for a discrete scale with 5 values: t0, t1, t2, t3, t4"><g transform="translate(0.5,300.5)"><path class="background" aria-hidden="true" d="M0,0h0v0h0Z" pointer-events="none"/><g><g class="mark-rule role-axis-tick" pointer-events="none"><line transform="translate(60,0)" x2="0" y2="5" stroke="#888" stroke-width="1" opacity="1"/><line transform="translate(180,0)" x2="0" y2="5" stroke="#888" stroke-width="1" opacity="1"/><line transform="translate(300,0)" x2="0" y2="5" stroke="#888" stroke-width="1" opacity="1"/><line transform="translate(420,0)" x2="0" y2="5" stroke="#888" stroke-width="1" opacity="1"/><line transform="translate(540,0)" x2="0" y2="5" stroke="#888" stroke-width="1" opacity="1"/></g><g class="mark-text role-axis-label" pointer-events="none"><text text-anchor="middle" transform="translate(60,23)" font-family="sans-serif" font-size="20px" fill="#000" opacity="1">t0</text><text text-anchor="middle" transform="translate(180,23)" font-family="sans-serif" font-size="20px" fill="#000" opacity="1">t1</text><text text-anchor="middle" transform="translate(300,23)" font-family="sans-serif" font-size="20px" fill="#000" opacity="1">t2</text><text text-anchor="middle" transform="translate(420,23)" font-family="sans-serif" font-size="20px" fill="#000" opacity="1">t3</text><text text-anchor="middle" transform="translate(540,23)" font-family="sans-serif" font-size="20px" fill="#000" opacity="1">t4</text></g><g class="mark-rule role-axis-domain" pointer-events="none"><line transform="translate(0,0)" x2="600" y2="0" stroke="#888" stroke-width="1" opacity="1"/></g><g class="mark-text role-axis-title" pointer-events="none"><text text-anchor="middle" transform="translate(300,47)" font-family="sans-serif" font-size="20px" font-weight="bold" fill="#000" opacity="1">Time of Day</text></g></g><path class="foreground" aria-hidden="true" d="" pointer-events="none" display="none"/></g></g><g class="mark-group role-axis" role="graphics-symbol" aria-roledescription="axis" aria-label="Y-axis titled 'NO2 level (µg/m3)' for a linear scale with values from 40 to 180"><g transform="translate(0.5,0.5)"><path class="background" aria-hidden="true" d="M0,0h0v0h0Z" pointer-events="none"/><g><g class="mark-rule role-axis-tick" pointer-events="none"><line transform="translate(0,300)" x2="-5" y2="0" stroke="#888" stroke-width="1" opacity="1"/><line transform="translate(0,257)" x2="-5" y2="0" stroke="#888" stroke-width="1" opacity="1"/><line transform="translate(0,214)" x2="-5" y2="0" stroke="#888" stroke-width="1" opacity="1"/><line transform="translate(0,171)" x2="-5" y2="0" stroke="#888" stroke-width="1" opacity="1"/><line transform="translate(0,129)" x2="-5" y2="0" stroke="#888" stroke-width="1" opacity="1"/><line transform="translate(0,86)" x2="-5" y2="0" stroke="#888" stroke-width="1" opacity="1"/><line transform="translate(0,43)" x2="-5" y2="0" stroke="#888" stroke-width="1" opacity="1"/><line transform="translate(0,0)" x2="-5" y2="0" stroke="#888" stroke-width="1" opacity="1"/></g><g class="mark-text role-axis-label" pointer-events="none"><text text-anchor="end" transform="translate(-7,306)" font-family="sans-serif" font-size="20px" fill="#000" opacity="1">40</text><text text-anchor="end" transform="translate(-7,263.14285714285717)" font-family="sans-serif" font-size="20px" fill="#000" opacity="1">60</text><text text-anchor="end" transform="translate(-7,220.28571428571428)" font-family="sans-serif" font-size="20px" fill="#000" opacity="1">80</text><text text-anchor="end" transform="translate(-7,177.42857142857142)" font-family="sans-serif" font-size="20px" fill="#000" opacity="1">100</text><text text-anchor="end" transform="translate(-7,134.57142857142858)" font-family="sans-serif" font-size="20px" fill="#000" opacity="1">120</text><text text-anchor="end" transform="translate(-7,91.71428571428571)" font-family="sans-serif" font-size="20px" fill="#000" opacity="1">140</text><text text-anchor="end" transform="translate(-7,48.85714285714287)" font-family="sans-serif" font-size="20px" fill="#000" opacity="1">160</text><text text-anchor="end" transform="translate(-7,6)" font-family="sans-serif" font-size="20px" fill="#000" opacity="1">180</text></g><g class="mark-rule role-axis-domain" pointer-events="none"><line transform="translate(0,300)" x2="0" y2="-300" stroke="#888" stroke-width="1" opacity="1"/></g><g class="mark-text role-axis-title" pointer-events="none"><text text-anchor="middle" transform="translate(-44.369140625,150) rotate(-90) translate(0,-4)" font-family="sans-serif" font-size="20px" font-weight="bold" fill="#000" opacity="1">NO2 level (µg/m3)</text></g></g><path class="foreground" aria-hidden="true" d="" pointer-events="none" display="none"/></g></g><g class="mark-area role-mark layer_0_marks" role="graphics-object" aria-roledescription="area mark container"><path aria-label="99: 115.032534335; Time of Day: t0; NO2 level (µg/m3): 61.1489931976" role="graphics-symbol" aria-roledescription="area mark" d="M60,254.6807288622737L180,259.8504374383427L300,250.26246474975022L420,278.6762861061444L540,244.5159919398023L540,45.642917620300324L420,9.58837124439657L300,99.2109801617961L180,132.4274809210907L60,139.21599785374787Z" fill="#c5e1f9"/></g><g class="mark-area role-mark layer_1_marks" role="graphics-object" aria-roledescription="area mark container"><path aria-label="94: 103.61998557; Time of Day: t0; NO2 level (µg/m3): 67.9285622414" role="graphics-symbol" aria-roledescription="area mark" d="M60,240.15308091134074L180,244.31174718721326L300,232.27454713680643L420,253.69209888903004L540,222.2633737661453L540,91.62992866299604L420,80.0295050065331L300,132.5832437483304L180,160.07756596388444L60,163.67145949197706Z" fill="#bfd9f7"/></g><g class="mark-area role-mark layer_2_marks" role="graphics-object" aria-roledescription="area mark container"><path aria-label="89: 99.1118430691; Time of Day: t0; NO2 level (µg/m3): 71.0324885249" role="graphics-symbol" aria-roledescription="area mark" d="M60,233.50181030379815L180,237.1420144102975L300,223.92605497398117L420,241.39961133905626L540,211.77854400962804L540,109.26916438160102L420,105.86612376279768L300,145.58353657626952L180,170.9133640366674L60,173.33176485190523Z" fill="#bacff4"/></g><g class="mark-area role-mark layer_3_marks" role="graphics-object" aria-roledescription="area mark container"><path aria-label="84: 96.0422982149; Time of Day: t0; NO2 level (µg/m3): 73.3109481096" role="graphics-symbol" aria-roledescription="area mark" d="M60,228.6193969080773L180,231.8579424836472L300,217.75472522075603L420,232.03508741045286L540,203.96758222797905L540,121.10257159217976L420,122.81309342245366L300,154.37324301100338L180,178.26177690405478L60,179.9093609680289Z" fill="#b5c6f2"/></g><g class="mark-area role-mark layer_4_marks" role="graphics-object" aria-roledescription="area mark container"><path aria-label="79: 93.6243350734; Time of Day: t0; NO2 level (µg/m3): 75.2098373689" role="graphics-symbol" aria-roledescription="area mark" d="M60,224.5503484952312L180,227.44091507800067L300,212.5843762918763L420,224.01002526300823L540,197.38527784285566L540,130.3210447984844L420,135.79467649669823L300,161.26075471711104L180,184.03294163176488L60,185.0907105570458Z" fill="#b1bcef"/></g><g class="mark-area role-mark layer_5_marks" role="graphics-object" aria-roledescription="area mark container"><path aria-label="74: 91.5761789185; Time of Day: t0; NO2 level (µg/m3): 76.8959044468" role="graphics-symbol" aria-roledescription="area mark" d="M60,220.9373476139986L180,223.50908395781488L300,207.97328371242537L420,216.7163477648999L540,191.4862618211458L540,138.05747476509526L420,146.53707335198897L300,167.06926321170747L180,188.90919233282037L60,189.47961660331472Z" fill="#acb2eb"/></g><g class="mark-area role-mark layer_6_marks" role="graphics-object" aria-roledescription="area mark container"><path aria-label="69: 89.7619180187; Time of Day: t0; NO2 level (µg/m3): 78.4529836357" role="graphics-symbol" aria-roledescription="area mark" d="M60,217.60074935213333L180,219.86997829406607L300,203.69835910151485L420,209.8402933641689L540,185.9936638389822L540,144.85439097589773L420,155.85826924233123L300,172.19446832676448L180,193.21900145084038L60,193.36731853136135Z" fill="#a9a8e8"/></g><g class="mark-area role-mark layer_7_marks" role="graphics-object" aria-roledescription="area mark container"><path aria-label="64: 88.1039345913; Time of Day: t0; NO2 level (µg/m3): 79.9313889466" role="graphics-symbol" aria-roledescription="area mark" d="M60,214.43273797147273L180,216.40770112074318L300,199.62492601237466L420,203.1869523769811L540,180.73919426495792L540,151.01923846904418L420,164.21677913929628L300,176.86150933201915L180,197.14955489694105L60,196.92014016158643Z" fill="#aba5e4"/></g><g class="mark-area role-mark layer_8_marks" role="graphics-object" aria-roledescription="area mark container"><path aria-label="59: 86.5523086359; Time of Day: t0; NO2 level (µg/m3): 81.3656771527" role="graphics-symbol" aria-roledescription="area mark" d="M60,211.359263244169L180,213.04229331434604L300,195.65974728294816L420,196.61608040500101L540,175.60526209582406L540,156.74785548693353L420,171.9008621438277L300,181.21451003505277L180,200.8209180959999L60,200.24505292302445Z" fill="#ada1e0"/></g><g class="mark-area role-mark layer_9_marks" role="graphics-object" aria-roledescription="area mark container"><path aria-label="54: 85.071609701; Time of Day: t0; NO2 level (µg/m3): 82.7826225411" role="graphics-symbol" aria-roledescription="area mark" d="M60,208.32295169758973L180,209.71144028724953L300,191.72983461672658L420,190.01242973282547L540,170.49871423858113L540,162.1774615238834L420,179.10903978867017L300,185.35512414633922L180,204.3180003519018L60,203.41797921224924Z" fill="#b09edc"/></g><g class="mark-group role-title"><g transform="translate(300,-34)"><path class="background" aria-hidden="true" d="M0,0h0v0h0Z" pointer-events="none"/><g><g class="mark-text role-title-text" role="graphics-symbol" aria-roledescription="title" aria-label="Title text 'Visual Semiotics - Gradient Chart'" pointer-events="none"><text text-anchor="middle" transform="translate(0,16)" font-family="sans-serif" font-size="20px" font-weight="bold" fill="#000" opacity="1">Visual Semiotics - Gradient Chart</text></g></g><path class="foreground" aria-hidden="true" d="" pointer-events="none" display="none"/></g></g></g><path class="foreground" aria-hidden="true" d="" display="none"/></g></g></g></svg>